<svg version="1.2" xmlns="http://www.w3.org/2000/svg" viewBox="0 0 720 720" width="720" height="720"><defs><linearGradient id="P" gradientUnits="userSpaceOnUse"/><linearGradient id="g1" x1="120244.4" y1="21852.8" x2="462759.8" y2="496638.2" href="#P"><stop stop-color="#b3e5fc"/><stop offset="1" stop-color="#c8e6c9"/></linearGradient></defs><style>.a{fill:url(#g1)}.b{fill:#b3e5fc}.c{fill:#03a9f4}</style><path class="a" d="m360 719.5c-198.8 0-359.5-160.7-359.5-359.5 0-198.8 160.7-359.5 359.5-359.5 198.8 0 359.5 160.7 359.5 359.5 0 198.8-160.7 359.5-359.5 359.5z"/><path class="b" d="m360 674.3c-173.8 0-314.3-140.5-314.3-314.3 0-173.8 140.5-314.3 314.3-314.3 173.8 0 314.3 140.5 314.3 314.3 0 173.8-140.5 314.3-314.3 314.3z"/><path class="c" d="m360.5 642.9c-156.2 0-282.4-126.2-282.4-282.4 0-156.2 126.2-282.4 282.4-282.4 156.2 0 282.4 126.2 282.4 282.4 0 156.2-126.2 282.4-282.4 282.4z"/></svg>